<svg class="svg-icon" fill="currentColor" overflow="hidden" style="height:1em;vertical-align:middle;width:1em" viewBox="0 0 1024 1024" xmlns="http://www.w3.org/2000/svg"><g fill="#fff"><path d="m512 179.2 390.4 627.2H128l384-627.2m0-64c-19.2 0-44.8 12.8-51.2 32L70.4 774.4c-25.6 44.8 6.4 96 51.2 96H896c51.2 0 83.2-57.6 51.2-96l-384-627.2c-6.4-19.2-32-32-51.2-32z"/><path d="M512 640c-19.2 0-32-12.8-32-32V416c0-19.2 12.8-32 32-32s32 12.8 32 32v192c0 19.2-12.8 32-32 32zM480 723.2a32 32 0 1 0 64 0 32 32 0 1 0-64 0z"/></g></svg>