<?xml version="1.0" encoding="UTF-8" standalone="no"?>
<!-- Created with Inkscape (http://www.inkscape.org/) -->

<svg
   width="190.10258mm"
   height="174.7041mm"
   viewBox="0 0 190.10258 174.7041"
   version="1.1"
   id="svg5"
   xml:space="preserve"
   xmlns="http://www.w3.org/2000/svg"
   xmlns:svg="http://www.w3.org/2000/svg"><defs
     id="defs2" /><g
     id="layer1"
     transform="translate(-40.556649,0.71869268)"
     style="display:inline"><path
       style="display:inline;fill:none;stroke:#000000;stroke-width:0.388762px;stroke-linecap:butt;stroke-linejoin:miter;stroke-opacity:1"
       d="m 159.26422,102.73874 0.73998,-0.10459"
       id="path1059" /><path
       style="display:inline;fill:none;stroke:#000000;stroke-width:0.388762px;stroke-linecap:butt;stroke-linejoin:miter;stroke-opacity:1"
       d="M 159.52293,104.43691 160.5192,104.234"
       id="path1061" /><path
       style="display:inline;fill:none;stroke:#000000;stroke-width:0.388762px;stroke-linecap:butt;stroke-linejoin:miter;stroke-opacity:1"
       d="m 159.52293,106.06623 1.01022,-0.32564 -0.0317,-1.68724"
       id="path1063" /><path
       style="display:inline;fill:none;stroke:#000000;stroke-width:0.388762px;stroke-linecap:butt;stroke-linejoin:miter;stroke-opacity:1"
       d="m 101.43828,92.502311 1.14052,-0.195757 -0.009,-0.72439"
       id="path1065" /><path
       style="display:inline;fill:none;stroke:#000000;stroke-width:1.46933;stroke-linecap:butt;stroke-linejoin:miter;stroke-dasharray:none;stroke-opacity:1"
       d="m 138.52284,14.217966 -4.81508,0.689203"
       id="path1034" /><path
       style="display:inline;fill:none;stroke:#000000;stroke-width:1.46933;stroke-linecap:butt;stroke-linejoin:miter;stroke-dasharray:none;stroke-opacity:1"
       d="m 161.52024,16.030047 -9.38968,-0.80916"
       id="path1036" /><path
       style="display:inline;fill:none;stroke:#000000;stroke-width:0.388762px;stroke-linecap:butt;stroke-linejoin:miter;stroke-opacity:1"
       d="m 103.89346,72.827976 c 2.69666,-6.019874 7.05143,-1.562213 7.05082,-1.566892"
       id="path2786" /><path
       style="display:inline;fill:none;stroke:#000000;stroke-width:0.388762px;stroke-linecap:butt;stroke-linejoin:miter;stroke-opacity:1"
       d="m 105.73683,73.519144 -1.84337,-0.782998"
       id="path2788" /><path
       style="display:inline;fill:none;stroke:#000000;stroke-width:0.388762px;stroke-linecap:butt;stroke-linejoin:miter;stroke-opacity:1"
       d="m 119.72322,52.021258 v -5.898754 l 8.7098,0.691914 -0.0461,6.175198 z"
       id="path2398" /><path
       style="display:inline;fill:none;stroke:#000000;stroke-width:0.388762px;stroke-linecap:butt;stroke-linejoin:miter;stroke-opacity:1"
       d="m 128.38694,52.988991 7.37338,-0.41404 -0.0926,-6.175319 -7.23515,0.414042"
       id="path2400" /><path
       style="display:inline;fill:none;stroke:#000000;stroke-width:0.388762px;stroke-linecap:butt;stroke-linejoin:miter;stroke-opacity:1"
       d="m 135.8064,52.62021 3.27195,0.506972 0.0926,-6.589983 -3.42367,-0.129908"
       id="path2402" /><path
       style="display:inline;fill:none;stroke:#000000;stroke-width:0.388762px;stroke-linecap:butt;stroke-linejoin:miter;stroke-opacity:1"
       d="m 139.21661,53.219369 c 0.18437,-0.05424 2.58068,-0.368927 2.58068,-0.368927 l 0.0116,-6.486713 -2.62164,0.170432"
       id="path2404" /><path
       style="display:inline;fill:none;stroke:#000000;stroke-width:0.388762px;stroke-linecap:butt;stroke-linejoin:miter;stroke-opacity:1"
       d="m 141.97307,52.798656 7.28299,-0.879536 -0.0812,-7.08757 -7.2504,1.531553"
       id="path2406" /><path
       style="display:inline;fill:none;stroke:#000000;stroke-width:0.388762px;stroke-linecap:butt;stroke-linejoin:miter;stroke-opacity:1"
       d="m 118.76587,38.272226 v -5.898814 l 8.7098,0.691884 -0.0461,6.175317 z"
       id="path2398-2" /><path
       style="display:inline;fill:none;stroke:#000000;stroke-width:0.388762px;stroke-linecap:butt;stroke-linejoin:miter;stroke-opacity:1"
       d="m 127.42959,39.239988 7.37338,-0.41407 -0.0925,-6.175198 -7.23515,0.414039"
       id="path2400-4" /><path
       style="display:inline;fill:none;stroke:#000000;stroke-width:0.388762px;stroke-linecap:butt;stroke-linejoin:miter;stroke-opacity:1"
       d="m 134.84905,38.871296 3.27197,0.506973 0.0926,-6.589984 -3.42367,-0.130802"
       id="path2402-0" /><path
       style="display:inline;fill:none;stroke:#000000;stroke-width:0.388762px;stroke-linecap:butt;stroke-linejoin:miter;stroke-opacity:1"
       d="m 138.25926,39.470278 c 0.18437,-0.05424 2.58067,-0.36893 2.58067,-0.36893 l 0.0116,-6.486711 -2.62165,0.170431"
       id="path2404-9" /><path
       style="display:inline;fill:none;stroke:#000000;stroke-width:0.388762px;stroke-linecap:butt;stroke-linejoin:miter;stroke-opacity:1"
       d="m 141.01575,39.049563 7.28297,-0.879536 -0.0812,-7.08748 -7.2504,1.531553"
       id="path2406-5" /><path
       style="display:inline;fill:none;stroke:#000000;stroke-width:0.388762px;stroke-linecap:butt;stroke-linejoin:miter;stroke-opacity:1"
       d="m 149.46787,51.446352 2.24844,0.02681 -0.29328,-23.690097 -11.04671,-0.293189 -0.065,3.812587"
       id="path2408" /><path
       style="display:inline;fill:none;fill-opacity:1;stroke:#000000;stroke-width:0.293867;stroke-linecap:square;stroke-linejoin:bevel;stroke-dasharray:none;stroke-opacity:1;paint-order:normal"
       id="path2458"
       d="m 149.76187,29.217517 a 0.46083656,0.73733842 0 0 1 0.46017,-0.737055 0.46083656,0.73733842 0 0 1 0.4615,0.734932 0.46083656,0.73733842 0 0 1 -0.45849,0.739735 0.46083656,0.73733842 0 0 1 -0.46317,-0.732233" /><path
       style="display:inline;fill:none;fill-opacity:1;stroke:#000000;stroke-width:0.293867;stroke-linecap:square;stroke-linejoin:bevel;stroke-dasharray:none;stroke-opacity:1;paint-order:normal"
       id="path2458-4"
       d="m 150.27821,50.240428 a 0.46083656,0.73733842 0 0 1 0.46017,-0.737054 0.46083656,0.73733842 0 0 1 0.4615,0.734931 0.46083656,0.73733842 0 0 1 -0.45849,0.739735 0.46083656,0.73733842 0 0 1 -0.46317,-0.732233" /><path
       style="display:inline;fill:none;stroke:#000000;stroke-width:0.389375;stroke-linecap:round;stroke-linejoin:round;stroke-dasharray:none;stroke-opacity:1"
       d="m 135.87552,73.337631 -0.0614,3.004438 c -0.0289,-0.141528 -1.91552,2.843158 -6.63966,0.698201 l -0.14271,-3.336304 c 4.96663,1.717718 6.73538,-0.240747 6.84351,-0.366247 z"
       id="path2540" /><path
       style="display:inline;fill:none;stroke:#000000;stroke-width:0.388762px;stroke-linecap:round;stroke-linejoin:round;stroke-opacity:1"
       d="m 130.23028,69.302591 -0.0235,3.94005 c 2.81891,1.363865 4.66128,-0.08105 4.65447,-0.137953 l -0.0461,-3.893959 c -1.85622,-0.257134 -4.55192,-0.09118 -4.60835,0.09118 z"
       id="path2542" /><path
       style="display:inline;fill:none;stroke:#000000;stroke-width:0.388762px;stroke-linecap:butt;stroke-linejoin:miter;stroke-opacity:1"
       d="m 129.05514,73.726612 c -0.0459,-0.668435 1.10599,-1.037214 1.10599,-1.037214"
       id="path2544" /><path
       style="display:inline;fill:none;stroke:#000000;stroke-width:0.388762px;stroke-linecap:butt;stroke-linejoin:miter;stroke-opacity:1"
       d="m 135.87553,73.242641 c -0.32258,-0.690066 -0.9908,-0.598951 -0.9908,-0.598951"
       id="path2546" /><path
       style="display:inline;fill:none;stroke:#000000;stroke-width:0.388762px;stroke-linecap:butt;stroke-linejoin:miter;stroke-opacity:1"
       d="M 130.06899,69.394688 128.29476,69.340448 126.9353,68.534 h -0.71427 l 0.0926,-2.626632 h -1.52076 l -0.0235,-0.576425 -0.73734,0.02681 -0.0461,-12.719119"
       id="path2550" /><path
       style="display:inline;fill:none;stroke:#000000;stroke-width:0.388762px;stroke-linecap:butt;stroke-linejoin:miter;stroke-opacity:1"
       d="m 134.97689,69.394688 2.16594,-0.05424 0.89865,-0.713515 0.85255,-0.09118 0.0461,-2.649841 1.79726,-1.106192 0.0925,-11.613104"
       id="path2554" /><path
       style="display:inline;fill:none;stroke:#000000;stroke-width:0.388762px;stroke-linecap:butt;stroke-linejoin:miter;stroke-opacity:1"
       d="m 126.29014,67.873981 c 0.23742,0.381561 7.28961,1.295183 12.64994,0.05424"
       id="path2556" /><path
       style="display:inline;fill:none;stroke:#000000;stroke-width:0.388762px;stroke-linecap:butt;stroke-linejoin:miter;stroke-opacity:1"
       d="m 126.42839,65.892394 c 5.12739,1.549668 13.22821,-0.009 12.51171,-0.05424"
       id="path2558" /><path
       style="display:inline;fill:none;stroke:#000000;stroke-width:0.388762px;stroke-linecap:butt;stroke-linejoin:miter;stroke-opacity:1"
       d="m 124.81546,65.316325 c 6.57268,0.827215 15.57448,0.03606 15.39192,-0.161491"
       id="path2560" /><path
       style="display:inline;fill:none;stroke:#000000;stroke-width:0.388762px;stroke-linecap:butt;stroke-linejoin:miter;stroke-opacity:1"
       d="m 119.60553,46.0967 2.71814,-1.037184 -2.5417,-0.104587 3.22601,-0.847059"
       id="path2562" /><path
       style="display:inline;fill:none;stroke:#000000;stroke-width:0.388762px;stroke-linecap:butt;stroke-linejoin:miter;stroke-opacity:1"
       d="m 118.59898,32.360778 3.65953,-0.856951 -2.70465,-0.129909 2.60689,-0.521393 0.84723,0.06317 v -4.464339 c 4.86874,1.330464 13.00951,0.03606 12.57823,0.02682 l 0.0324,5.441928 2.08552,-0.521392 1.6293,0.358113 1.10794,-0.651303"
       id="path2564" /><path
       style="display:inline;fill:none;stroke:#000000;stroke-width:0.388762px;stroke-linecap:butt;stroke-linejoin:miter;stroke-opacity:1"
       d="m 122.84504,44.179532 c 3.01806,3.392885 12.71267,1.34411 13.03444,1.172695"
       id="path2566" /><path
       style="display:inline;fill:none;stroke:#000000;stroke-width:0.388762px;stroke-linecap:butt;stroke-linejoin:miter;stroke-opacity:1"
       d="m 122.77988,44.016729 v -5.14868"
       id="path2568" /><path
       style="display:inline;fill:none;stroke:#000000;stroke-width:0.388762px;stroke-linecap:butt;stroke-linejoin:miter;stroke-opacity:1"
       d="m 122.89673,30.897636 c 3.58446,1.987694 12.68947,0.996782 12.68947,0.996782"
       id="path2570" /><path
       style="display:inline;fill:none;stroke:#000000;stroke-width:0.388762px;stroke-linecap:butt;stroke-linejoin:miter;stroke-opacity:1"
       d="m 141.19814,39.255958 0.0461,5.437937 -1.56684,0.875931 -1.93552,-0.506973 -1.88942,0.368959 v -6.405608"
       id="path2572" /><path
       style="display:inline;fill:none;stroke:#000000;stroke-width:0.388762px;stroke-linecap:butt;stroke-linejoin:miter;stroke-opacity:1"
       d="m 135.58621,26.583203 0.13026,-6.517283 2.02034,-0.06317 1.59671,0.129909 1.1405,-0.293188 -3.09567,-0.358114 -1.7771,0.598057"
       id="path2574" /><path
       style="display:inline;fill:none;stroke:#000000;stroke-width:0.388762px;stroke-linecap:butt;stroke-linejoin:miter;stroke-opacity:1"
       d="m 140.37633,27.52811 -0.065,-7.722811"
       id="path2576" /><path
       style="display:inline;fill:none;stroke:#000000;stroke-width:0.388762px;stroke-linecap:butt;stroke-linejoin:miter;stroke-opacity:1"
       d="m 122.51919,25.898887 -0.065,-5.930756 1.30344,0.598088 v 5.854329 z"
       id="path2578" /><path
       style="display:inline;fill:none;stroke:#000000;stroke-width:0.388762px;stroke-linecap:butt;stroke-linejoin:miter;stroke-opacity:1"
       d="m 123.88781,26.420191 4.10583,0.325665 -0.065,-6.126155 h -4.17102"
       id="path2580" /><path
       style="display:inline;fill:none;stroke:#000000;stroke-width:0.388762px;stroke-linecap:butt;stroke-linejoin:miter;stroke-opacity:1"
       d="m 128.12401,26.876361 5.08339,-0.45644 0.0495,-5.880608 -5.31386,0.117394"
       id="path2582" /><path
       style="display:inline;fill:none;stroke:#000000;stroke-width:0.388762px;stroke-linecap:butt;stroke-linejoin:miter;stroke-opacity:1"
       d="m 133.34093,26.490836 2.05074,-0.230916 0.0926,-5.852632 -2.23505,0.161492"
       id="path2584" /><path
       style="display:inline;fill:none;stroke:#000000;stroke-width:0.388762px;stroke-linecap:butt;stroke-linejoin:miter;stroke-opacity:1"
       d="m 122.38883,19.707449 4.43172,-0.325665"
       id="path2586" /><path
       style="display:inline;fill:none;stroke:#000000;stroke-width:0.388762px;stroke-linecap:butt;stroke-linejoin:miter;stroke-opacity:1"
       d="m 126.67439,19.316114 c 2.49059,1.553721 7.75564,0.405041 8.54187,0.05422"
       id="path2588" /><path
       style="display:inline;fill:none;stroke:#000000;stroke-width:0.388762px;stroke-linecap:butt;stroke-linejoin:miter;stroke-opacity:1"
       d="m 126.79624,18.142972 c 2.67775,1.561855 7.98817,0.147191 8.29989,-0.09118 l 0.008,1.48835"
       id="path2588-4" /><path
       style="display:inline;fill:none;stroke:#000000;stroke-width:0.388762px;stroke-linecap:butt;stroke-linejoin:miter;stroke-opacity:1"
       d="m 126.91227,18.264925 c -0.008,0.366247 -0.0152,0.695519 -0.0235,1.267773"
       id="path2632" /><path
       style="display:inline;fill:none;stroke:#000000;stroke-width:0.388762px;stroke-linecap:butt;stroke-linejoin:miter;stroke-opacity:1"
       d="m 135.21884,19.324874 2.06879,0.188606"
       id="path2634" /><path
       style="display:inline;fill:none;stroke:#000000;stroke-width:0.388762px;stroke-linecap:butt;stroke-linejoin:miter;stroke-opacity:1"
       d="m 135.16259,17.833754 c -0.76837,-0.566505 -2.01168,-0.358144 -2.01218,-0.358144"
       id="path2636" /><path
       style="display:inline;fill:none;stroke:#000000;stroke-width:0.388762px;stroke-linecap:butt;stroke-linejoin:miter;stroke-opacity:1"
       d="m 126.90201,18.273774 c 0.0173,-0.456439 0.26071,-0.488916 0.26071,-0.488916"
       id="path2638" /><path
       style="display:inline;fill:none;stroke:#000000;stroke-width:0.388762px;stroke-linecap:butt;stroke-linejoin:miter;stroke-opacity:1"
       d="m 133.08521,18.021107 0.0245,-1.11668 0.45617,-0.228233 0.0977,-2.834843 -0.81465,-0.09118 -0.45618,-4.9858172 0.55386,-0.2607113 -0.0324,-1.2378283 -1.2708,-0.1623864 0.0977,-4.7250469 0.35849,-0.1308023 -0.22815,-0.4230675 -2.34618,-0.1299097 -0.35848,0.5538708 0.39105,0.2282344 -0.19558,4.6271683 -0.97764,0.3256363 v 1.0749947 l 0.52132,0.3256666 -0.26071,5.0182945 -1.46637,0.358144 -0.26072,2.574309 0.35848,0.195758 -0.009,0.936892 c 3.61739,0.999405 5.81678,0.117396 5.81678,0.117396 z"
       id="path2640" /><path
       style="display:inline;fill:none;stroke:#000000;stroke-width:0.388762px;stroke-linecap:butt;stroke-linejoin:miter;stroke-opacity:1"
       d="m 101.27308,98.17474 -3.0335,-1.654404"
       id="path2330" /><path
       style="display:inline;fill:none;stroke:#000000;stroke-width:0.388762px;stroke-linecap:butt;stroke-linejoin:miter;stroke-opacity:1"
       d="m 97.786361,72.00809 2.476549,0.325636"
       id="path2332" /><path
       style="display:inline;fill:none;stroke:#000000;stroke-width:0.388762px;stroke-linecap:butt;stroke-linejoin:miter;stroke-opacity:1"
       d="m 100.23033,69.694521 2.02033,0.553872"
       id="path2334" /><path
       style="display:inline;fill:none;stroke:#000000;stroke-width:0.388762px;stroke-linecap:butt;stroke-linejoin:miter;stroke-opacity:1"
       d="m 111.92872,68.423709 -1.49896,-0.521423"
       id="path2336" /><path
       style="display:inline;fill:none;stroke:#000000;stroke-width:0.388762px;stroke-linecap:butt;stroke-linejoin:miter;stroke-opacity:1"
       d="m 170.46131,113.22027 -0.36859,-31.613436 2.30419,-3.225791 10.32274,-2.027681 1.47469,1.843276 -0.0926,21.843752"
       id="path2338" /><path
       style="display:inline;fill:none;stroke:#000000;stroke-width:0.388762px;stroke-linecap:butt;stroke-linejoin:miter;stroke-opacity:1"
       d="m 163.27227,114.4185 0.46087,-33.917589 1.29035,-2.949349 11.24442,-2.672813 6.49779,1.520708"
       id="path2340" /><path
       style="display:inline;fill:none;stroke:#000000;stroke-width:0.388762px;stroke-linecap:butt;stroke-linejoin:miter;stroke-opacity:1"
       d="m 172.48899,78.334919 -7.46555,-0.782998"
       id="path2342" /><path
       style="display:inline;fill:none;stroke:#000000;stroke-width:0.388762px;stroke-linecap:butt;stroke-linejoin:miter;stroke-opacity:1"
       d="m 170.18482,81.606834 -6.26737,-1.106221"
       id="path2344" /><path
       style="display:inline;fill:none;stroke:#000000;stroke-width:0.388762px;stroke-linecap:butt;stroke-linejoin:miter;stroke-opacity:1"
       d="m 163.1866,114.30492 4.10585,1.30331"
       id="path2346" /><path
       style="display:inline;fill:none;stroke:#000000;stroke-width:1.46933;stroke-linecap:butt;stroke-linejoin:miter;stroke-dasharray:none;stroke-opacity:1"
       d="M 161.79759,116.354 95.713629,99.487414"
       id="path2348" /><path
       style="display:inline;fill:none;stroke:#000000;stroke-width:1.46933;stroke-linecap:butt;stroke-linejoin:miter;stroke-dasharray:none;stroke-opacity:1"
       d="m 96.107651,99.485062 4.792029,-1.163581"
       id="path2350" /><path
       style="display:inline;fill:none;stroke:#000000;stroke-width:1.46933;stroke-linecap:butt;stroke-linejoin:miter;stroke-dasharray:none;stroke-opacity:1"
       d="m 199.94368,103.32339 10.42754,-2.08561 -0.13025,-53.375987 -10.88376,1.955157 z"
       id="path2352" /><path
       style="display:inline;fill:none;stroke:#000000;stroke-width:1.46933;stroke-linecap:butt;stroke-linejoin:miter;stroke-dasharray:none;stroke-opacity:1"
       d="m 170.74657,54.248718 41.44948,-6.973363 V 19.121013 l -41.97085,3.649663 z"
       id="path2354" /><path
       style="display:inline;fill:none;stroke:#000000;stroke-width:1.46933;stroke-linecap:butt;stroke-linejoin:miter;stroke-dasharray:none;stroke-opacity:1"
       d="m 170.09263,16.444652 0.73737,58.987043 -9.26688,-2.158006 -9.1442,1.636702 -0.55298,-22.889133"
       id="path2356" /><path
       style="display:inline;fill:none;stroke:#000000;stroke-width:1.46933;stroke-linecap:butt;stroke-linejoin:miter;stroke-dasharray:none;stroke-opacity:1"
       d="m 152.10734,27.202295 -0.1225,-10.251058 9.64549,-0.896639 9.07146,1.097104"
       id="path2358" /><path
       style="display:inline;fill:none;stroke:#000000;stroke-width:0.388762px;stroke-linecap:butt;stroke-linejoin:miter;stroke-opacity:1"
       d="m 161.62247,72.822732 -0.065,-56.471638"
       id="path2360" /><path
       style="display:inline;fill:none;stroke:#000000;stroke-width:1.46933;stroke-linecap:butt;stroke-linejoin:miter;stroke-dasharray:none;stroke-opacity:1"
       d="M 151.84448,75.039763 136.24026,73.425318"
       id="path2362" /><path
       style="display:inline;fill:none;stroke:#000000;stroke-width:1.46933;stroke-linecap:butt;stroke-linejoin:miter;stroke-dasharray:none;stroke-opacity:1"
       d="m 200.16219,19.670443 v -4.124546 l 10.48405,-0.575501 -0.0235,3.732762"
       id="path2364" /><path
       style="display:inline;fill:none;stroke:#000000;stroke-width:1.46933;stroke-linecap:butt;stroke-linejoin:miter;stroke-dasharray:none;stroke-opacity:1"
       d="M 199.81661,15.574589 163.4473,14.362834 v 1.303496"
       id="path2366" /><path
       style="display:inline;fill:none;stroke:#000000;stroke-width:1.46933;stroke-linecap:butt;stroke-linejoin:miter;stroke-dasharray:none;stroke-opacity:1"
       d="m 151.75136,16.997628 -18.15699,-1.10622"
       id="path2368" /><path
       style="display:inline;fill:none;stroke:#000000;stroke-width:0.388762px;stroke-linecap:butt;stroke-linejoin:miter;stroke-opacity:1"
       d="m 138.75576,-0.32982637 7.55772,0.0911775 5.53004,-0.27590754 0.27647,15.11545941 -6.17521,0.552053 -7.3734,-0.552053 z"
       id="path2372" /><path
       style="display:inline;fill:none;stroke:#000000;stroke-width:0.388762px;stroke-linecap:butt;stroke-linejoin:miter;stroke-opacity:1"
       d="m 145.76047,15.154234 0.18438,-15.39196257"
       id="path2374" /><path
       style="display:inline;fill:none;stroke:#000000;stroke-width:0.388762px;stroke-linecap:butt;stroke-linejoin:miter;stroke-opacity:1"
       d="m 172.85558,112.97085 14.97717,3.50238 -0.18438,-8.75585 -15.11543,-3.3181 z"
       id="path1940-9" /><path
       style="display:inline;fill:none;stroke:#000000;stroke-width:0.388762px;stroke-linecap:butt;stroke-linejoin:miter;stroke-opacity:1"
       d="m 189.21527,106.74965 0.0926,-2.02777 -14.28591,-3.4102 0.13819,2.02777 z"
       id="path1942-1" /><path
       style="display:inline;fill:none;stroke:#000000;stroke-width:0.388762px;stroke-linecap:butt;stroke-linejoin:miter;stroke-opacity:1"
       d="m 187.64843,107.85557 1.56684,-1.05929"
       id="path1944-9" /><path
       style="display:inline;fill:none;stroke:#000000;stroke-width:0.388762px;stroke-linecap:butt;stroke-linejoin:miter;stroke-opacity:1"
       d="m 172.62515,104.44537 2.48851,-1.15183"
       id="path1946-5" /><path
       style="display:inline;fill:none;stroke:#000000;stroke-width:0.388762px;stroke-linecap:butt;stroke-linejoin:miter;stroke-opacity:1"
       d="m 187.83277,116.42723 2.16591,0.2759 3.73277,-1.4747 0.0461,-1.84337 1.52079,-1.10621 -0.0461,-6.77428 -0.96773,-0.96811 -0.18439,-1.84337 -4.74661,1.98156"
       id="path1948-6" /><path
       style="display:inline;fill:none;stroke:#000000;stroke-width:0.388762px;stroke-linecap:butt;stroke-linejoin:miter;stroke-opacity:1"
       d="m 194.10013,102.51 -12.81126,-3.179906 -6.17521,1.843396"
       id="path1950-4" /><path
       style="display:inline;fill:none;stroke:#000000;stroke-width:0.388762px;stroke-linecap:butt;stroke-linejoin:miter;stroke-opacity:1"
       d="m 205.66924,142.89815 14.9772,3.50239 -0.18444,-8.75595 -15.11545,-3.31792 z"
       id="path1940" /><path
       style="display:inline;fill:none;stroke:#000000;stroke-width:0.388762px;stroke-linecap:butt;stroke-linejoin:miter;stroke-opacity:1"
       d="m 222.02892,136.67683 0.0927,-2.02768 -14.28594,-3.41017 0.13829,2.02765 z"
       id="path1942" /><path
       style="display:inline;fill:none;stroke:#000000;stroke-width:0.388762px;stroke-linecap:butt;stroke-linejoin:miter;stroke-opacity:1"
       d="m 220.46209,137.78287 1.56683,-1.05942"
       id="path1944" /><path
       style="display:inline;fill:none;stroke:#000000;stroke-width:0.388762px;stroke-linecap:butt;stroke-linejoin:miter;stroke-opacity:1"
       d="m 205.43882,134.37267 2.48851,-1.15186"
       id="path1946" /><path
       style="display:inline;fill:none;stroke:#000000;stroke-width:0.388762px;stroke-linecap:butt;stroke-linejoin:miter;stroke-opacity:1"
       d="m 220.64644,146.35444 2.16593,0.2759 3.73276,-1.4747 0.046,-1.8433 1.52076,-1.10629 -0.0459,-6.7742 -0.96776,-0.96818 -0.18444,-1.84331 -4.74661,1.98159"
       id="path1948" /><path
       style="display:inline;fill:none;stroke:#000000;stroke-width:0.388762px;stroke-linecap:butt;stroke-linejoin:miter;stroke-opacity:1"
       d="m 226.91379,132.43718 -12.81124,-3.17979 -6.17522,1.84327"
       id="path1950" /><path
       style="display:inline;fill:none;stroke:#000000;stroke-width:1.46933;stroke-linecap:butt;stroke-linejoin:miter;stroke-dasharray:none;stroke-opacity:1"
       d="M 72.190031,100.98947 98.386483,94.418139"
       id="path1935" /><path
       style="display:inline;fill:none;stroke:#000000;stroke-width:1.46933;stroke-linecap:butt;stroke-linejoin:miter;stroke-dasharray:none;stroke-opacity:1"
       d="m 59.791012,105.62069 3.030506,-4.38291 9.449963,2.81873"
       id="path1914" /><path
       style="fill:none;stroke:#000000;stroke-width:1.46933;stroke-linecap:butt;stroke-linejoin:miter;stroke-dasharray:none;stroke-opacity:1"
       d="M 85.240726,153.63622 133.32262,137.41165 98.014461,126.52457 50.813553,139.02132 Z"
       id="path1810" /><path
       style="fill:none;stroke:#000000;stroke-width:1.46933;stroke-linecap:butt;stroke-linejoin:miter;stroke-dasharray:none;stroke-opacity:1"
       d="m 186.38788,151.81133 v -9.90609 l -126.43393,-35.71435 0.260712,7.82069 z"
       id="path1812" /><path
       style="fill:none;stroke:#000000;stroke-width:1.46933;stroke-linecap:butt;stroke-linejoin:miter;stroke-dasharray:none;stroke-opacity:1"
       d="m 149.89147,129.91356 v -9.1241 L 72.727685,101.23778 v 7.03871 z"
       id="path1910" /><path
       style="fill:none;stroke:#000000;stroke-width:1.46933;stroke-linecap:butt;stroke-linejoin:miter;stroke-dasharray:none;stroke-opacity:1"
       d="m 186.22493,141.51419 2.50915,-4.56205 -31.25003,-9.00998"
       id="path1912" /><path
       style="fill:none;stroke:#000000;stroke-width:1.46933;stroke-linecap:butt;stroke-linejoin:miter;stroke-dasharray:none;stroke-opacity:1"
       d="m 85.892452,154.07607 1.955172,4.77393 0.782092,12.25241 4.431711,2.08547 72.732093,-27.63295"
       id="path1917" /><path
       style="fill:none;stroke:#000000;stroke-width:1.46933;stroke-linecap:butt;stroke-linejoin:miter;stroke-dasharray:none;stroke-opacity:1"
       d="m 88.890372,169.53819 69.766788,-26.1991"
       id="path1919" /><path
       style="fill:none;stroke:#000000;stroke-width:1.46933;stroke-linecap:butt;stroke-linejoin:miter;stroke-dasharray:none;stroke-opacity:1"
       d="m 49.301915,139.15139 -2.133986,4.41337 -1.307459,9.33826 -4.997446,-2.29297"
       id="path1923" /><path
       style="fill:none;stroke:#000000;stroke-width:1.46933;stroke-linecap:butt;stroke-linejoin:miter;stroke-dasharray:none;stroke-opacity:1"
       d="m 150.39357,130.15982 55.02456,-18.49444 -0.26071,-7.55988 -10.42752,3.12817"
       id="path1925" /><path
       style="fill:none;stroke:#000000;stroke-width:1.46933;stroke-linecap:butt;stroke-linejoin:miter;stroke-dasharray:none;stroke-opacity:1"
       d="m 150.12058,121.08176 25.57907,-7.8522"
       id="path1927" /><path
       style="fill:none;stroke:#000000;stroke-width:1.46933;stroke-linecap:butt;stroke-linejoin:miter;stroke-dasharray:none;stroke-opacity:1"
       d="m 188.76666,136.98479 37.50655,-15.15253 3.64963,4.4316 -0.0596,9.09252 -1.69376,0.74781"
       id="path1929" /><path
       style="fill:none;stroke:#000000;stroke-width:1.46933;stroke-linecap:butt;stroke-linejoin:miter;stroke-dasharray:none;stroke-opacity:1"
       d="m 186.79993,152.09513 20.33145,-9.26736"
       id="path1931" /><path
       style="fill:none;stroke:#000000;stroke-width:1.46933;stroke-linecap:butt;stroke-linejoin:miter;stroke-dasharray:none;stroke-opacity:1;paint-order:normal"
       d="M 88.264599,170.93147 46.275692,153.10797"
       id="path1938" /><path
       style="fill:none;fill-opacity:1;stroke:#000000;stroke-width:1.46933;stroke-linecap:square;stroke-linejoin:bevel;stroke-dasharray:none;stroke-opacity:1;paint-order:normal"
       id="path2320"
       d="m 58.911205,154.80774 a 3.1282623,4.0406728 0 0 1 3.123757,-4.03911 3.1282623,4.0406728 0 0 1 3.13275,4.02748 3.1282623,4.0406728 0 0 1 -3.11233,4.05381 3.1282623,4.0406728 0 0 1 -3.144103,-4.0127" /><path
       style="fill:none;stroke:#000000;stroke-width:0.388762px;stroke-linecap:butt;stroke-linejoin:miter;stroke-opacity:1"
       d="m 98.30678,96.688835 -0.552966,-24.648207 2.541716,-2.346107 10.23201,-1.792324"
       id="path2326" /><path
       style="fill:none;stroke:#000000;stroke-width:0.388762px;stroke-linecap:butt;stroke-linejoin:miter;stroke-opacity:1"
       d="m 101.27308,98.370197 -0.91236,-26.068768 1.82482,-2.085484 9.64546,-1.824803 2.08552,2.085394 0.13036,6.386927"
       id="path2328" /><path
       style="fill:none;stroke:#000000;stroke-width:0.146933;stroke-linecap:butt;stroke-linejoin:miter;stroke-dasharray:none;stroke-opacity:1"
       d="m 137.96499,45.059516 -0.065,-5.474585"
       id="path2686" /><path
       style="fill:none;stroke:#000000;stroke-width:0.146933;stroke-linecap:butt;stroke-linejoin:miter;stroke-dasharray:none;stroke-opacity:1"
       d="m 137.7043,31.438515 -0.065,-11.209583"
       id="path2688" /><path
       style="fill:none;stroke:#000000;stroke-width:0.388762px;stroke-linecap:butt;stroke-linejoin:miter;stroke-opacity:1"
       d="m 127.01607,16.579239 c 2.5417,1.303498 6.45203,0.06317 6.45203,0.06317"
       id="path2690" /><path
       style="fill:none;stroke:#000000;stroke-width:0.388762px;stroke-linecap:butt;stroke-linejoin:miter;stroke-opacity:1"
       d="m 127.27676,14.330833 c 3.35635,0.814551 6.32171,-0.325667 6.32171,-0.325667"
       id="path2692" /><path
       style="fill:none;stroke:#000000;stroke-width:0.388762px;stroke-linecap:butt;stroke-linejoin:miter;stroke-opacity:1"
       d="m 128.5802,8.4653896 c 1.92259,0.7820742 4.13842,0.063168 4.13842,0.063168"
       id="path2694" /><path
       style="fill:none;stroke:#000000;stroke-width:0.388762px;stroke-linecap:butt;stroke-linejoin:miter;stroke-opacity:1"
       d="m 128.5476,7.4225729 c 2.05295,0.7162564 4.33397,-0.026818 4.33397,-0.026818"
       id="path2696" /><path
       style="fill:none;stroke:#000000;stroke-width:0.388762px;stroke-linecap:butt;stroke-linejoin:miter;stroke-opacity:1"
       d="m 129.2645,2.2087894 c 1.30345,0.4230675 2.73725,0 2.73725,0"
       id="path2698" /><path
       style="fill:none;stroke:#000000;stroke-width:0.388762px;stroke-linecap:butt;stroke-linejoin:miter;stroke-opacity:1"
       d="m 128.68647,13.794899 c 1.35948,0.552083 4.17059,-0.02681 4.17059,-0.02681"
       id="path2700" /><path
       style="fill:none;stroke:#000000;stroke-width:0.388762px;stroke-linecap:butt;stroke-linejoin:miter;stroke-opacity:1"
       d="m 163.70798,79.991674 -0.78209,-0.195757 -1.36862,0.521393 -1.95516,-0.260711 -5.08343,1.759579 0.32584,1.04234 5.21377,1.042429 0.91236,-0.586348 2.08551,0.195757 0.65175,-0.195757"
       id="path2750" /><path
       style="fill:none;stroke:#000000;stroke-width:0.388762px;stroke-linecap:butt;stroke-linejoin:miter;stroke-opacity:1"
       d="m 154.77938,83.05484 0.26071,14.468149"
       id="path2752" /><path
       style="fill:none;stroke:#000000;stroke-width:0.388762px;stroke-linecap:butt;stroke-linejoin:miter;stroke-opacity:1"
       d="m 160.25386,83.967182 0.19549,15.1199"
       id="path2754" /><path
       style="fill:none;stroke:#000000;stroke-width:0.388762px;stroke-linecap:butt;stroke-linejoin:miter;stroke-opacity:1"
       d="m 153.99734,98.305064 1.17307,-0.847028 5.27895,1.629227 -0.71688,0.977297 z"
       id="path2756" /><path
       style="fill:none;stroke:#000000;stroke-width:0.388762px;stroke-linecap:butt;stroke-linejoin:miter;stroke-opacity:1"
       d="m 153.73664,98.370197 0.065,1.303503 5.80031,1.36854 0.065,-0.9121"
       id="path2758" /><path
       style="fill:none;stroke:#000000;stroke-width:0.388762px;stroke-linecap:butt;stroke-linejoin:miter;stroke-opacity:1"
       d="m 159.86283,101.10755 1.04278,-1.107564 -0.1955,-0.912104"
       id="path2760" /><path
       style="fill:none;stroke:#000000;stroke-width:0.388762px;stroke-linecap:butt;stroke-linejoin:miter;stroke-opacity:1"
       d="m 154.258,81.816475 0.32594,14.859362 0.45616,0.847066"
       id="path2762" /><path
       style="fill:none;stroke:#000000;stroke-width:0.388762px;stroke-linecap:butt;stroke-linejoin:miter;stroke-opacity:1"
       d="m 153.67148,98.305064 -0.45619,-1.629227 1.23824,-1.368712"
       id="path2764" /><path
       style="fill:none;stroke:#000000;stroke-width:0.388762px;stroke-linecap:butt;stroke-linejoin:miter;stroke-opacity:1"
       d="m 153.60631,99.804053 -0.5213,-1.629313 -0.065,-1.498903"
       id="path2766" /><path
       style="fill:none;fill-opacity:1;stroke:#000000;stroke-width:0.146933;stroke-linecap:round;stroke-linejoin:round;stroke-dasharray:none;stroke-opacity:1;paint-order:normal"
       id="path2768"
       d="m 160.12352,81.783924 a 1.2708565,0.22810245 0 0 1 1.26903,-0.228014 1.2708565,0.22810245 0 0 1 1.27268,0.227357 1.2708565,0.22810245 0 0 1 -1.26439,0.228844 1.2708565,0.22810245 0 0 1 -1.27729,-0.226523" /><path
       style="fill:none;fill-opacity:1;stroke:#000000;stroke-width:0.146933;stroke-linecap:round;stroke-linejoin:round;stroke-dasharray:none;stroke-opacity:1;paint-order:normal"
       id="path2770"
       d="m 190.42854,110.0031 a 0.8798238,1.0753402 0 0 1 0.87856,-1.07493 0.8798238,1.0753402 0 0 1 0.88108,1.07183 0.8798238,1.0753402 0 0 1 -0.87534,1.07884 0.8798238,1.0753402 0 0 1 -0.88428,-1.0679" /><path
       style="fill:none;fill-opacity:1;stroke:#000000;stroke-width:0.146933;stroke-linecap:round;stroke-linejoin:round;stroke-dasharray:none;stroke-opacity:1;paint-order:normal"
       id="path2772"
       d="m 223.73143,140.07999 a 0.91240978,1.1730984 0 0 1 0.9111,-1.17264 0.91240978,1.1730984 0 0 1 0.91372,1.16927 0.91240978,1.1730984 0 0 1 -0.90776,1.17691 0.91240978,1.1730984 0 0 1 -0.91703,-1.16498" /><path
       style="fill:none;stroke:#000000;stroke-width:0.388762px;stroke-linecap:butt;stroke-linejoin:miter;stroke-opacity:1"
       d="M 100.96716,87.874249 103.91652,72.75888"
       id="path2774" /><path
       style="fill:none;stroke:#000000;stroke-width:0.388762px;stroke-linecap:butt;stroke-linejoin:miter;stroke-opacity:1"
       d="m 102.16534,89.256854 3.59452,-15.85281"
       id="path2776" /><path
       style="fill:none;stroke:#000000;stroke-width:0.388762px;stroke-linecap:butt;stroke-linejoin:miter;stroke-opacity:1"
       d="m 111.93507,72.574476 5.99088,12.442554"
       id="path2778" /><path
       style="fill:none;stroke:#000000;stroke-width:0.388762px;stroke-linecap:butt;stroke-linejoin:miter;stroke-opacity:1"
       d="m 102.34967,89.441052 15.37869,-4.536411"
       id="path2780" /><path
       style="fill:none;stroke:#000000;stroke-width:0.388762px;stroke-linecap:butt;stroke-linejoin:miter;stroke-opacity:1"
       d="m 163.64093,88.243 -3.77886,14.19373 3.50237,5.0691"
       id="path2782" /><path
       style="fill:none;stroke:#000000;stroke-width:0.388762px;stroke-linecap:butt;stroke-linejoin:miter;stroke-opacity:1"
       d="m 105.75986,73.47323 c 2.99168,-6.988529 6.28946,-0.644092 6.29042,-0.644986"
       id="path2784" /><path
       style="fill:none;stroke:#000000;stroke-width:0;stroke-linecap:butt;stroke-linejoin:miter;stroke-dasharray:none;stroke-opacity:1"
       d="m 209.82727,14.581503 -38.71029,-1.474793 -7.74203,0.737889"
       id="path380" /><path
       style="fill:none;stroke:#000000;stroke-width:1.46933;stroke-linecap:butt;stroke-linejoin:miter;stroke-dasharray:none;stroke-opacity:1"
       d="m 211.25585,14.996198 -36.72867,-1.843305 -11.70526,1.151868"
       id="path936" /><path
       style="fill:none;stroke:#000000;stroke-width:0.388762px;stroke-linecap:butt;stroke-linejoin:miter;stroke-opacity:1"
       d="m 151.71578,51.540536 2.02768,-0.230916 -0.29957,-24.032597 -2.05075,0.575501"
       id="path1040" /><path
       style="fill:none;stroke:#000000;stroke-width:0.388762px;stroke-linecap:butt;stroke-linejoin:miter;stroke-opacity:1"
       d="m 148.15582,52.070511 7.56923,-0.668434 -0.36859,-24.147819 h -1.79725"
       id="path1042" /><path
       style="display:inline;fill:none;stroke:#000000;stroke-width:0.388762px;stroke-linecap:butt;stroke-linejoin:miter;stroke-opacity:1"
       d="M 153.58217,27.231435 140.49441,26.862477"
       id="path1044" /><path
       style="fill:none;stroke:#000000;stroke-width:0.146933;stroke-linecap:butt;stroke-linejoin:miter;stroke-dasharray:none;stroke-opacity:1"
       d="m 149.31711,44.698333 -7.92407,-0.02681"
       id="path1047" /><path
       style="fill:none;stroke:#000000;stroke-width:0.146933;stroke-linecap:butt;stroke-linejoin:miter;stroke-dasharray:none;stroke-opacity:1"
       d="m 148.34935,30.916377 -7.87798,0.117395"
       id="path1049" /><path
       style="fill:none;stroke:#000000;stroke-width:0.388762px;stroke-linecap:butt;stroke-linejoin:miter;stroke-opacity:1"
       d="m 119.69917,31.206049 0.0116,0.761339"
       id="path1051" /><path
       style="fill:none;stroke:#000000;stroke-width:0.388762px;stroke-linecap:butt;stroke-linejoin:miter;stroke-opacity:1"
       d="m 101.66868,93.804647 57.9274,13.681423 -0.0925,-1.47461 -57.88107,-13.45647 z"
       id="path1053" /><path
       style="fill:none;stroke:#000000;stroke-width:0.388762px;stroke-linecap:butt;stroke-linejoin:miter;stroke-opacity:1"
       d="m 114.22414,92.83763 -12.59263,-2.792651 -0.28505,1.127137 58.06536,13.214344 -0.0351,-1.63589 -41.30899,-8.984449"
       id="path1055" /><path
       style="fill:none;stroke:#000000;stroke-width:0.388762px;stroke-linecap:butt;stroke-linejoin:miter;stroke-opacity:1"
       d="m 159.74151,107.52505 2.90412,-0.87412"
       id="path1057" /><path
       style="fill:none;stroke:#000000;stroke-width:0.734664;stroke-linecap:butt;stroke-linejoin:miter;stroke-dasharray:none;stroke-opacity:1"
       d="M 160.42558,101.72563 127.37314,94.565448"
       id="path1071" /><path
       style="fill:none;stroke:#000000;stroke-width:0.734664;stroke-linecap:butt;stroke-linejoin:miter;stroke-dasharray:none;stroke-opacity:1"
       d="m 104.2669,88.902793 9.93677,2.269681"
       id="path1073" /><path
       style="fill:none;stroke:#000000;stroke-width:0.388762px;stroke-linecap:butt;stroke-linejoin:miter;stroke-opacity:1"
       d="m 102.48103,89.447368 -1.41749,-0.325635"
       id="path1075" /><path
       style="fill:none;stroke:#000000;stroke-width:0;stroke-linecap:butt;stroke-linejoin:miter;stroke-dasharray:none;stroke-opacity:1"
       d="m 131.14048,94.49814 -16.84699,-1.237888 -0.065,-2.509118 16.847,1.042341 z"
       id="path1077" /><path
       style="fill:none;stroke:#000000;stroke-width:0.293867;stroke-linecap:butt;stroke-linejoin:miter;stroke-dasharray:none;stroke-opacity:1"
       d="m 131.03513,94.586723 -0.0577,-2.728025 -16.71664,-0.74963 0.11466,2.300818 z"
       id="path1805" /><path
       style="fill:none;stroke:#000000;stroke-width:0.293867;stroke-linecap:butt;stroke-linejoin:miter;stroke-dasharray:none;stroke-opacity:1"
       d="m 131.13942,94.599893 15.82973,-3.980366 -0.0235,-2.442465 -15.89885,3.709762"
       id="path1807" /><path
       style="display:inline;fill:none;stroke:#000000;stroke-width:0.293867;stroke-linecap:butt;stroke-linejoin:miter;stroke-dasharray:none;stroke-opacity:1"
       d="m 114.25255,91.04763 0.27938,-4.811632 14.69509,-3.358591 16.79174,0.899352 0.92343,4.314433"
       id="path1809" /><path
       style="display:inline;fill:none;stroke:#000000;stroke-width:0.734664;stroke-linecap:butt;stroke-linejoin:miter;stroke-dasharray:none;stroke-opacity:1"
       d="m 153.16866,96.485951 -16.0605,-3.179963"
       id="path1811" /><path
       style="display:inline;fill:none;stroke:#000000;stroke-width:0.734664;stroke-linecap:butt;stroke-linejoin:miter;stroke-dasharray:none;stroke-opacity:1"
       d="M 154.43952,93.48801 143.86533,91.614313"
       id="path1813" /><path
       style="display:inline;fill:none;stroke:#000000;stroke-width:0.734664;stroke-linecap:butt;stroke-linejoin:miter;stroke-dasharray:none;stroke-opacity:1"
       d="m 114.32048,88.176437 -4.16774,-1.013735"
       id="path1815" /><path
       style="display:inline;fill:none;stroke:#000000;stroke-width:0.388762px;stroke-linecap:butt;stroke-linejoin:miter;stroke-opacity:1"
       d="m 154.43952,92.151945 -7.55998,-1.531524"
       id="path1829" /><path
       style="display:inline;fill:none;stroke:#000000;stroke-width:0.388762px;stroke-linecap:butt;stroke-linejoin:miter;stroke-opacity:1"
       d="m 117.70678,84.894808 1.68921,0.234491"
       id="path1831" /><path
       style="display:inline;fill:none;stroke:#000000;stroke-width:0.389375;stroke-linecap:butt;stroke-linejoin:miter;stroke-dasharray:none;stroke-opacity:1"
       d="M 84.387559,103.06205 96.092821,99.974456"
       id="path1833" /><path
       style="display:inline;fill:none;stroke:#000000;stroke-width:0.734664;stroke-linecap:butt;stroke-linejoin:miter;stroke-dasharray:none;stroke-opacity:1"
       d="m 88.074248,103.8915 10.852707,-3.01841"
       id="path1835" /><path
       style="display:inline;fill:none;stroke:#000000;stroke-width:0.734664;stroke-linecap:butt;stroke-linejoin:miter;stroke-dasharray:none;stroke-opacity:1"
       d="m 93.327791,105.18183 9.977109,-3.3871"
       id="path1837" /><path
       style="display:inline;fill:none;stroke:#000000;stroke-width:0.734664;stroke-linecap:butt;stroke-linejoin:miter;stroke-dasharray:none;stroke-opacity:1"
       d="m 97.106644,106.31088 10.760536,-3.61749"
       id="path1839" /><path
       style="display:inline;fill:none;stroke:#000000;stroke-width:0.734664;stroke-linecap:butt;stroke-linejoin:miter;stroke-dasharray:none;stroke-opacity:1"
       d="m 103.76574,108.06214 10.18447,-3.54848"
       id="path1841" /><path
       style="display:inline;fill:none;stroke:#000000;stroke-width:0.734664;stroke-linecap:butt;stroke-linejoin:miter;stroke-dasharray:none;stroke-opacity:1"
       d="m 109.06535,109.30638 10.7375,-3.34102"
       id="path1843" /><path
       style="display:inline;fill:none;stroke:#000000;stroke-width:0.734664;stroke-linecap:butt;stroke-linejoin:miter;stroke-dasharray:none;stroke-opacity:1"
       d="m 114.31889,110.66589 10.5762,-3.3181"
       id="path1845" /><path
       style="display:inline;fill:none;stroke:#000000;stroke-width:0.734664;stroke-linecap:butt;stroke-linejoin:miter;stroke-dasharray:none;stroke-opacity:1"
       d="m 120.42497,112.1866 10.7375,-3.3871"
       id="path1849" /><path
       style="display:inline;fill:none;stroke:#000000;stroke-width:0.734664;stroke-linecap:butt;stroke-linejoin:miter;stroke-dasharray:none;stroke-opacity:1"
       d="m 126.41584,113.93787 11.33659,-3.59458"
       id="path1851" /><path
       style="display:inline;fill:none;stroke:#000000;stroke-width:0.734664;stroke-linecap:butt;stroke-linejoin:miter;stroke-dasharray:none;stroke-opacity:1"
       d="m 132.2224,115.41238 10.8988,-3.44157"
       id="path1853" /><path
       style="display:inline;fill:none;stroke:#000000;stroke-width:0.734664;stroke-linecap:butt;stroke-linejoin:miter;stroke-dasharray:none;stroke-opacity:1"
       d="m 138.76627,116.79499 10.02322,-3.54838"
       id="path1855" /><path
       style="display:inline;fill:none;stroke:#000000;stroke-width:0.734664;stroke-linecap:butt;stroke-linejoin:miter;stroke-dasharray:none;stroke-opacity:1"
       d="m 145.79403,118.54611 10.44353,-3.2628"
       id="path1857" /><path
       style="fill:none;stroke:#000000;stroke-width:0.388762px;stroke-linecap:butt;stroke-linejoin:miter;stroke-opacity:1"
       d="M 101.48459,98.223247 112.2221,96.379881"
       id="path1895" /><path
       style="fill:none;stroke:#000000;stroke-width:0.388762px;stroke-linecap:butt;stroke-linejoin:miter;stroke-opacity:1"
       d="m 115.53175,97.10505 v 1.759665 c -4.75756,3.193345 -14.40303,0.162385 -14.40303,0.162385 l -0.0325,-0.782103"
       id="path1897" /><path
       style="fill:none;stroke:#000000;stroke-width:1.46933;stroke-linecap:butt;stroke-linejoin:miter;stroke-dasharray:none;stroke-opacity:1"
       d="M 163.37495,110.61979 115.72444,98.637939"
       id="path1899" /><path
       style="fill:none;stroke:#000000;stroke-width:1.46933;stroke-linecap:butt;stroke-linejoin:miter;stroke-dasharray:none;stroke-opacity:1"
       d="M 226.37508,121.60648 196.517,115.5027"
       id="path2627" /><path
       style="fill:none;stroke:#000000;stroke-width:1.46933;stroke-linecap:butt;stroke-linejoin:miter;stroke-dasharray:none;stroke-opacity:1"
       d="m 209.4448,101.7323 v 14.85918"
       id="path2629" /><path
       style="fill:none;stroke:#000000;stroke-width:1.46933;stroke-linecap:butt;stroke-linejoin:miter;stroke-dasharray:none;stroke-opacity:1"
       d="m 62.726042,101.08055 30.842705,-8.863473 4.822735,0.912104"
       id="path2631" /><path
       style="fill:none;stroke:#000000;stroke-width:0.734664;stroke-linecap:round;stroke-linejoin:miter;stroke-dasharray:none;stroke-opacity:1"
       d="m 132.65295,78.040598 0.0848,2.966897"
       id="path2633" /><path
       style="display:inline;fill:none;stroke:#000000;stroke-width:0.734664;stroke-linecap:round;stroke-linejoin:round;stroke-dasharray:none;stroke-opacity:1;paint-order:markers fill stroke"
       id="path2687"
       d="m 127.66009,88.430117 a 3.0184793,1.4055517 0 0 1 3.01414,-1.405011 3.0184793,1.4055517 0 0 1 3.02281,1.400963 3.0184793,1.4055517 0 0 1 -3.00311,1.410121 3.0184793,1.4055517 0 0 1 -3.03376,-1.395819" /><path
       style="display:inline;fill:none;stroke:#000000;stroke-width:0.734664;stroke-linecap:round;stroke-linejoin:round;stroke-dasharray:none;stroke-opacity:1;paint-order:markers fill stroke"
       id="path2689"
       d="m 120.1946,87.208905 a 0.96775669,0.64517117 0 0 1 0.96637,-0.644923 0.96775669,0.64517117 0 0 1 0.96914,0.643065 0.96775669,0.64517117 0 0 1 -0.96283,0.647268 0.96775669,0.64517117 0 0 1 -0.97265,-0.640704" /><path
       style="display:inline;fill:none;stroke:#000000;stroke-width:0.388762px;stroke-linecap:butt;stroke-linejoin:miter;stroke-opacity:1"
       d="m 128.21311,89.513484 -7.18904,-1.520797"
       id="path2691" /><path
       style="display:inline;fill:none;stroke:#000000;stroke-width:0.388762px;stroke-linecap:butt;stroke-linejoin:miter;stroke-opacity:1"
       d="m 121.07015,86.351009 6.82038,-1.91249 m 5.27657,3.047286 -3.38832,-2.700615 c -1.00826,-0.700018 -1.89001,-0.34548 -1.89401,-0.343693"
       id="path2693" /><path
       style="display:inline;fill:none;stroke:#000000;stroke-width:0.146933;stroke-linecap:butt;stroke-linejoin:miter;stroke-dasharray:none;stroke-opacity:1"
       d="m 130.86349,86.824134 -1.76371,-1.368602"
       id="path2695" /><path
       style="display:inline;fill:none;stroke:#000000;stroke-width:0;stroke-linecap:butt;stroke-linejoin:miter;stroke-dasharray:none;stroke-opacity:1"
       d="m 122.27707,86.758999 5.73514,-1.54785"
       id="path2697" /><path
       style="display:inline;fill:none;stroke:#000000;stroke-width:0.146933;stroke-linecap:butt;stroke-linejoin:miter;stroke-dasharray:none;stroke-opacity:1"
       d="m 122.30559,86.856701 5.45816,-1.596659 c 0.6992,-0.296762 1.32682,0.191288 1.34416,0.202909"
       id="path2699" /><rect
       style="fill:none;stroke:#e81117;stroke-width:0.734664;stroke-linecap:round;stroke-linejoin:round;stroke-dasharray:1.46933, 2.93867;stroke-dashoffset:0;stroke-opacity:1;paint-order:markers fill stroke"
       id="rect2760"
       width="31.412975"
       height="81.07415"
       x="115.59693"
       y="0.97614622" /><path
       style="fill:none;stroke:#000000;stroke-width:1.46933;stroke-linecap:butt;stroke-linejoin:miter;stroke-dasharray:none;stroke-opacity:1"
       d="m 41.504398,150.59454 5.459078,-2.36974"
       id="path8883" /><path
       style="fill:none;stroke:#000000;stroke-width:1.46933;stroke-linecap:butt;stroke-linejoin:miter;stroke-dasharray:none;stroke-opacity:1"
       d="m 199.653,103.40431 -5.53182,-0.66843"
       id="path17667" /></g></svg>
