<svg class="svg-icon" fill="currentColor" overflow="hidden" style="height:1em;vertical-align:middle;width:1em" viewBox="0 0 1024 1024" xmlns="http://www.w3.org/2000/svg"><path d="M512 39.385c-259.94 0-472.62 212.68-472.62 472.62S252.06 984.625 512 984.625s472.62-212.68 472.62-472.62S771.94 39.385 512 39.385zm-354.46 472.62c0-194.95 159.51-354.46 354.46-354.46 76.8 0 147.69 23.631 204.8 64.985L222.52 716.81c-41.354-57.108-64.985-128-64.985-204.8zM512 866.465c-76.8 0-147.69-23.631-204.8-64.985L801.48 307.2c41.354 57.108 64.985 128 64.985 204.8 0 194.95-159.51 354.46-354.46 354.46z" fill="#fff"/></svg>