<svg class="svg-icon" overflow="hidden" style="height:1em;vertical-align:middle;width:1em" viewBox="0 0 1024 1024" xmlns="http://www.w3.org/2000/svg"><path d="M414.72 695.81c-7.936 0-15.872-3.328-21.504-9.984l-157.7-184.83c-9.984-11.776-8.704-29.696 3.072-39.68s29.696-8.704 39.68 3.072l157.95 184.83c9.984 11.776 8.704 29.696-3.072 39.68-5.376 4.608-11.776 6.912-18.432 6.912z" fill="#fff"/><path d="M415.23 696.83c-7.68 0-15.36-3.072-20.992-9.472-10.24-11.52-9.216-29.44 2.304-39.68l352-313.6c11.52-10.24 29.44-9.216 39.68 2.304s9.216 29.44-2.304 39.68l-352 313.6c-5.376 4.864-12.032 7.168-18.688 7.168z" fill="#fff"/></svg>